<?xml version="1.0" encoding="UTF-8"?>
<!DOCTYPE svg PUBLIC "-//W3C//DTD SVG 1.1//EN" "http://www.w3.org/Graphics/SVG/1.1/DTD/svg11.dtd">
<!-- Creator: CorelDRAW -->
<svg xmlns="http://www.w3.org/2000/svg" xml:space="preserve" width="43.3492mm" height="43.3492mm" version="1.1" style="shape-rendering:geometricPrecision; text-rendering:geometricPrecision; image-rendering:optimizeQuality; fill-rule:evenodd; clip-rule:evenodd"
viewBox="0 0 4334.92 4334.92"
 xmlns:xlink="http://www.w3.org/1999/xlink"
 xmlns:xodm="http://www.corel.com/coreldraw/odm/2003">
 <defs>
  <style type="text/css">
   <![CDATA[
    .fil0 {fill:url(#id0)}
   ]]>
  </style>
  <linearGradient id="id0" gradientUnits="userSpaceOnUse" x1="2160.33" y1="0.53" x2="2160.35" y2="4335.46">
   <stop offset="0" style="stop-opacity:1; stop-color:#E52E71"/>
   <stop offset="1" style="stop-opacity:1; stop-color:#FF8A00"/>
  </linearGradient>
 </defs>
 <g id="Слой_x0020_1">
  <metadata id="CorelCorpID_0Corel-Layer"/>
  <path class="fil0" d="M-7.14 0.53l4334.93 0 0 4334.93 -4334.93 0 0 -4334.93zm2941.21 3700.38c60.52,-0.08 109.54,-49.09 109.54,-109.62l0 -2583.21 689.16 689.34c20.53,20.53 48.52,32.12 77.58,32.12 60.6,0 109.7,-49.1 109.7,-109.7 0,-29.06 -11.59,-57.05 -32.13,-77.58l-876.19 -876.19c-20.61,-20.53 -48.6,-32.13 -77.66,-32.13 -29.06,0 -57.04,11.6 -77.57,32.21l-876.2 876.19c-20.45,20.45 -32.04,48.44 -32.04,77.5 0,60.6 49.1,109.7 109.7,109.7 29.06,0 57.04,-11.59 77.58,-32.12l689.08 -689.34 0 2583.3c-0.08,60.44 48.93,109.45 109.45,109.45m-1533.32 -3066.72c60.61,0 109.62,49.01 109.62,109.54l0 2583.29 689.17 -689.33c20.36,-20.62 48.35,-32.21 77.41,-32.21 60.6,0 109.7,49.1 109.7,109.7 0,29.06 -11.59,57.05 -32.13,77.58l-876.19 876.19c-20.45,20.53 -48.43,32.12 -77.49,32.12 -29.06,0 -57.05,-11.59 -77.58,-32.2l-876.19 -876.19c-20.62,-20.45 -32.21,-48.44 -32.21,-77.5 0,-60.6 49.1,-109.7 109.7,-109.7 29.06,0 57.04,11.59 77.58,32.12l689.08 689.42 0 -2583.29c0.08,-60.53 49.1,-109.54 109.62,-109.54m-0.09 0l0 0 0 0z"/>
 </g>
</svg>
